<svg width="123" height="22" viewBox="0 0 123 22" fill="none" xmlns="http://www.w3.org/2000/svg">
<path d="M4.96086 16.14C4.02753 16.14 3.18753 15.98 2.44086 15.66C1.69419 15.3267 1.10753 14.86 0.680859 14.26C0.254193 13.66 0.0408594 12.96 0.0408594 12.16H2.48086C2.53419 12.76 2.76753 13.2533 3.18086 13.64C3.60753 14.0267 4.20086 14.22 4.96086 14.22C5.74753 14.22 6.36086 14.0333 6.80086 13.66C7.24086 13.2733 7.46086 12.78 7.46086 12.18C7.46086 11.7133 7.32086 11.3333 7.04086 11.04C6.77419 10.7467 6.43419 10.52 6.02086 10.36C5.62086 10.2 5.06086 10.0267 4.34086 9.84C3.43419 9.6 2.69419 9.36 2.12086 9.12C1.56086 8.86667 1.08086 8.48 0.680859 7.96C0.280859 7.44 0.0808594 6.74667 0.0808594 5.88C0.0808594 5.08 0.280859 4.38 0.680859 3.78C1.08086 3.18 1.64086 2.72 2.36086 2.4C3.08086 2.08 3.91419 1.92 4.86086 1.92C6.20753 1.92 7.30753 2.26 8.16086 2.94C9.02753 3.60667 9.50753 4.52667 9.60086 5.7H7.08086C7.04086 5.19333 6.80086 4.76 6.36086 4.4C5.92086 4.04 5.34086 3.86 4.62086 3.86C3.96753 3.86 3.43419 4.02667 3.02086 4.36C2.60753 4.69333 2.40086 5.17333 2.40086 5.8C2.40086 6.22667 2.52753 6.58 2.78086 6.86C3.04753 7.12667 3.38086 7.34 3.78086 7.5C4.18086 7.66 4.72753 7.83333 5.42086 8.02C6.34086 8.27333 7.08753 8.52667 7.66086 8.78C8.24753 9.03333 8.74086 9.42667 9.14086 9.96C9.55419 10.48 9.76086 11.18 9.76086 12.06C9.76086 12.7667 9.56753 13.4333 9.18086 14.06C8.80753 14.6867 8.25419 15.1933 7.52086 15.58C6.80086 15.9533 5.94753 16.14 4.96086 16.14ZM14.7312 6.6C15.1178 6.09333 15.6445 5.66667 16.3112 5.32C16.9778 4.97333 17.7312 4.8 18.5712 4.8C19.5312 4.8 20.4045 5.04 21.1912 5.52C21.9912 5.98667 22.6178 6.64667 23.0712 7.5C23.5245 8.35333 23.7512 9.33333 23.7512 10.44C23.7512 11.5467 23.5245 12.54 23.0712 13.42C22.6178 14.2867 21.9912 14.9667 21.1912 15.46C20.4045 15.94 19.5312 16.18 18.5712 16.18C17.7312 16.18 16.9845 16.0133 16.3312 15.68C15.6778 15.3333 15.1445 14.9067 14.7312 14.4V21.24H12.4512V4.98H14.7312V6.6ZM21.4312 10.44C21.4312 9.68 21.2712 9.02667 20.9512 8.48C20.6445 7.92 20.2312 7.5 19.7112 7.22C19.2045 6.92667 18.6578 6.78 18.0712 6.78C17.4978 6.78 16.9512 6.92667 16.4312 7.22C15.9245 7.51333 15.5112 7.94 15.1912 8.5C14.8845 9.06 14.7312 9.72 14.7312 10.48C14.7312 11.24 14.8845 11.9067 15.1912 12.48C15.5112 13.04 15.9245 13.4667 16.4312 13.76C16.9512 14.0533 17.4978 14.2 18.0712 14.2C18.6578 14.2 19.2045 14.0533 19.7112 13.76C20.2312 13.4533 20.6445 13.0133 20.9512 12.44C21.2712 11.8667 21.4312 11.2 21.4312 10.44ZM28.2859 6.58C28.6192 6.02 29.0592 5.58667 29.6059 5.28C30.1659 4.96 30.8259 4.8 31.5859 4.8V7.16H31.0059C30.1125 7.16 29.4325 7.38667 28.9659 7.84C28.5125 8.29333 28.2859 9.08 28.2859 10.2V16H26.0059V4.98H28.2859V6.58ZM34.8416 3.52C34.4283 3.52 34.0816 3.38 33.8016 3.1C33.5216 2.82 33.3816 2.47333 33.3816 2.06C33.3816 1.64667 33.5216 1.3 33.8016 1.02C34.0816 0.739999 34.4283 0.599999 34.8416 0.599999C35.2416 0.599999 35.5816 0.739999 35.8616 1.02C36.1416 1.3 36.2816 1.64667 36.2816 2.06C36.2816 2.47333 36.1416 2.82 35.8616 3.1C35.5816 3.38 35.2416 3.52 34.8416 3.52ZM35.9616 4.98V16H33.6816V4.98H35.9616ZM44.5151 4.8C45.3817 4.8 46.1551 4.98 46.8351 5.34C47.5284 5.7 48.0684 6.23333 48.4551 6.94C48.8417 7.64667 49.0351 8.5 49.0351 9.5V16H46.7751V9.84C46.7751 8.85333 46.5284 8.1 46.0351 7.58C45.5417 7.04667 44.8684 6.78 44.0151 6.78C43.1617 6.78 42.4817 7.04667 41.9751 7.58C41.4817 8.1 41.2351 8.85333 41.2351 9.84V16H38.9551V4.98H41.2351V6.24C41.6084 5.78667 42.0817 5.43333 42.6551 5.18C43.2417 4.92667 43.8617 4.8 44.5151 4.8ZM56.3834 4.8C57.2367 4.8 57.99 4.97333 58.6434 5.32C59.31 5.65333 59.83 6.07333 60.2034 6.58V4.98H62.5034V16.18C62.5034 17.1933 62.29 18.0933 61.8634 18.88C61.4367 19.68 60.8167 20.3067 60.0034 20.76C59.2034 21.2133 58.2434 21.44 57.1234 21.44C55.63 21.44 54.39 21.0867 53.4034 20.38C52.4167 19.6867 51.8567 18.74 51.7234 17.54H53.9834C54.1567 18.1133 54.5234 18.5733 55.0834 18.92C55.6567 19.28 56.3367 19.46 57.1234 19.46C58.0434 19.46 58.7834 19.18 59.3434 18.62C59.9167 18.06 60.2034 17.2467 60.2034 16.18V14.34C59.8167 14.86 59.29 15.3 58.6234 15.66C57.97 16.0067 57.2234 16.18 56.3834 16.18C55.4234 16.18 54.5434 15.94 53.7434 15.46C52.9567 14.9667 52.33 14.2867 51.8634 13.42C51.41 12.54 51.1834 11.5467 51.1834 10.44C51.1834 9.33333 51.41 8.35333 51.8634 7.5C52.33 6.64667 52.9567 5.98667 53.7434 5.52C54.5434 5.04 55.4234 4.8 56.3834 4.8ZM60.2034 10.48C60.2034 9.72 60.0434 9.06 59.7234 8.5C59.4167 7.94 59.01 7.51333 58.5034 7.22C57.9967 6.92667 57.45 6.78 56.8634 6.78C56.2767 6.78 55.73 6.92667 55.2234 7.22C54.7167 7.5 54.3034 7.92 53.9834 8.48C53.6767 9.02667 53.5234 9.68 53.5234 10.44C53.5234 11.2 53.6767 11.8667 53.9834 12.44C54.3034 13.0133 54.7167 13.4533 55.2234 13.76C55.7434 14.0533 56.29 14.2 56.8634 14.2C57.45 14.2 57.9967 14.0533 58.5034 13.76C59.01 13.4667 59.4167 13.04 59.7234 12.48C60.0434 11.9067 60.2034 11.24 60.2034 10.48ZM73.878 13.16H68.058L67.058 16H64.678L69.658 2.08H72.298L77.278 16H74.878L73.878 13.16ZM73.238 11.3L70.978 4.84L68.698 11.3H73.238ZM80.6034 3.52C80.19 3.52 79.8434 3.38 79.5634 3.1C79.2834 2.82 79.1434 2.47333 79.1434 2.06C79.1434 1.64667 79.2834 1.3 79.5634 1.02C79.8434 0.739999 80.19 0.599999 80.6034 0.599999C81.0034 0.599999 81.3434 0.739999 81.6234 1.02C81.9034 1.3 82.0434 1.64667 82.0434 2.06C82.0434 2.47333 81.9034 2.82 81.6234 3.1C81.3434 3.38 81.0034 3.52 80.6034 3.52ZM81.7234 4.98V16H79.4434V4.98H81.7234ZM86.9968 6.58C87.3301 6.02 87.7701 5.58667 88.3168 5.28C88.8768 4.96 89.5368 4.8 90.2968 4.8V7.16H89.7168C88.8235 7.16 88.1435 7.38667 87.6768 7.84C87.2235 8.29333 86.9968 9.08 86.9968 10.2V16H84.7168V4.98H86.9968V6.58Z" fill="#2D3436"/>
<path d="M109.545 16H106.745L100.405 6.42V16H97.6046V2.02H100.405L106.745 11.62V2.02H109.545V16ZM117.132 16.14C116.158 16.14 115.278 15.9733 114.492 15.64C113.718 15.3067 113.105 14.8267 112.652 14.2C112.198 13.5733 111.965 12.8333 111.952 11.98H114.952C114.992 12.5533 115.192 13.0067 115.552 13.34C115.925 13.6733 116.432 13.84 117.072 13.84C117.725 13.84 118.238 13.6867 118.612 13.38C118.985 13.06 119.172 12.6467 119.172 12.14C119.172 11.7267 119.045 11.3867 118.792 11.12C118.538 10.8533 118.218 10.6467 117.832 10.5C117.458 10.34 116.938 10.1667 116.272 9.98C115.365 9.71333 114.625 9.45333 114.052 9.2C113.492 8.93333 113.005 8.54 112.592 8.02C112.192 7.48667 111.992 6.78 111.992 5.9C111.992 5.07333 112.198 4.35333 112.612 3.74C113.025 3.12667 113.605 2.66 114.352 2.34C115.098 2.00667 115.952 1.84 116.912 1.84C118.352 1.84 119.518 2.19333 120.412 2.9C121.318 3.59333 121.818 4.56667 121.912 5.82H118.832C118.805 5.34 118.598 4.94667 118.212 4.64C117.838 4.32 117.338 4.16 116.712 4.16C116.165 4.16 115.725 4.3 115.392 4.58C115.072 4.86 114.912 5.26667 114.912 5.8C114.912 6.17333 115.032 6.48667 115.272 6.74C115.525 6.98 115.832 7.18 116.192 7.34C116.565 7.48667 117.085 7.66 117.752 7.86C118.658 8.12667 119.398 8.39333 119.972 8.66C120.545 8.92667 121.038 9.32667 121.452 9.86C121.865 10.3933 122.072 11.0933 122.072 11.96C122.072 12.7067 121.878 13.4 121.492 14.04C121.105 14.68 120.538 15.1933 119.792 15.58C119.045 15.9533 118.158 16.14 117.132 16.14Z" fill="#19368D"/>
</svg>
